# xmcd CD Database Entry
#
# Track frame offsets:
# 150
# 15855
# 33818
# 49753
# 66236
# 86209
# 104005
# 120848
# 138479
# 155674
# 174610
# 194340
# 208839
# 227476
#
# Disc length: 3280 seconds
#
# Revision: 1
# Processed by: cddbd v1.4PL0 Copyright (c) Steve Scherf et al.
# Submitted via: tcd 2.0b
#
DISCID=ba0cce0e
DTITLE=Sconosciuto - Sconosciuto
DYEAR=1900
DGENRE=
TTITLE0=Traccia 1
TTITLE1=Traccia 2
TTITLE2=Traccia 3
TTITLE3=Traccia 4
TTITLE4=Traccia 5
TTITLE5=Traccia 6
TTITLE6=Traccia 7
TTITLE7=Traccia 8
TTITLE8=Traccia 9
TTITLE9=Traccia 10
TTITLE10=Traccia 11
TTITLE11=Traccia 12
TTITLE12=Traccia 13
TTITLE13=Traccia 14
EXTD=
EXTT0=
EXTT1=
EXTT2=
EXTT3=
EXTT4=
EXTT5=
EXTT6=
EXTT7=
EXTT8=
EXTT9=
EXTT10=
EXTT11=
EXTT12=
EXTT13=
PLAYORDER=
